<?xml version="1.0" encoding="utf-8"?>
<!-- Generator: Adobe Illustrator 27.5.0, SVG Export Plug-In . SVG Version: 6.00 Build 0)  -->
<svg version="1.1" id="Layer_1" xmlns="http://www.w3.org/2000/svg" xmlns:xlink="http://www.w3.org/1999/xlink" x="0px" y="0px"
	 viewBox="0 0 4000 4000" style="enable-background:new 0 0 4000 4000;" xml:space="preserve">
<g>
	<rect x="16.529" y="16.529" style="fill-rule:evenodd;clip-rule:evenodd;fill:#FFFFFF;" width="3966.942" height="3966.942"/>
	<g>
		<defs>
			<rect id="SVGID_1_" x="1367.295" y="1049.962" width="328.182" height="1491.041"/>
		</defs>
		<clipPath id="SVGID_00000094608713035776238610000016360848671046462613_">
			<use xlink:href="#SVGID_1_"  style="overflow:visible;"/>
		</clipPath>
		
			<linearGradient id="SVGID_00000121243527149591593300000011115737464079622582_" gradientUnits="userSpaceOnUse" x1="1539.9989" y1="684.5739" x2="1520.3295" y2="3221.6042">
			<stop  offset="0" style="stop-color:#ECF955"/>
			<stop  offset="1" style="stop-color:#1A85F8"/>
		</linearGradient>
		
			<rect x="1367.295" y="1049.962" style="clip-path:url(#SVGID_00000094608713035776238610000016360848671046462613_);fill:url(#SVGID_00000121243527149591593300000011115737464079622582_);" width="328.182" height="1491.041"/>
	</g>
	<path style="opacity:0.3;fill-rule:evenodd;clip-rule:evenodd;fill:#00463C;" d="M1695.477,1887.522v-586.894
		c-83.428,9.426-220.081,48.283-328.182,192.339v833.185c0,0,100.984-92.944,151.469-244.413
		C1553.609,1977.189,1612.523,1920.755,1695.477,1887.522"/>
	<g>
		<defs>
			
				<rect id="SVGID_00000057117933342599895130000003346263307126098817_" x="2085.191" y="1526.345" width="328.182" height="1014.657"/>
		</defs>
		<clipPath id="SVGID_00000153685408171370922610000016999022875396337831_">
			<use xlink:href="#SVGID_00000057117933342599895130000003346263307126098817_"  style="overflow:visible;"/>
		</clipPath>
		
			<linearGradient id="SVGID_00000160191295276209835060000006220164289905987216_" gradientUnits="userSpaceOnUse" x1="2522.626" y1="697.1766" x2="2068.2468" y2="2918.8291">
			<stop  offset="0" style="stop-color:#ECF955"/>
			<stop  offset="1" style="stop-color:#1A85F8"/>
		</linearGradient>
		
			<rect x="2085.191" y="1526.345" style="clip-path:url(#SVGID_00000153685408171370922610000016999022875396337831_);fill:url(#SVGID_00000160191295276209835060000006220164289905987216_);" width="328.182" height="1014.657"/>
	</g>
	<path style="opacity:0.3;fill-rule:evenodd;clip-rule:evenodd;fill:#00463C;" d="M2413.372,1680.798v-154.453h-328.181v284.111
		C2191.905,1786.275,2309.771,1747.766,2413.372,1680.798"/>
	<g>
		<defs>
			<path id="SVGID_00000052096842871118697550000017939964531418101647_" d="M1367.295,2233.208c0,0,75.731-100.984,50.484-277.698
				c-25.24-176.712-100.973-378.671,126.23-530.143c227.202-151.469,706.856,151.473,1085.528-302.937
				c0,0,50.494,302.945-252.448,504.899c-185.109,123.408-390.891,129.527-556.415,152.724
				C1407.36,1837.978,1550.277,2050.216,1367.295,2233.208"/>
		</defs>
		<clipPath id="SVGID_00000183958734135650984430000009658017371966458803_">
			<use xlink:href="#SVGID_00000052096842871118697550000017939964531418101647_"  style="overflow:visible;"/>
		</clipPath>
		
			<linearGradient id="SVGID_00000114033405176887600830000000475039248834367667_" gradientUnits="userSpaceOnUse" x1="2344.9873" y1="1090.8193" x2="1107.9674" y2="3186.0181">
			<stop  offset="0" style="stop-color:#ECF955"/>
			<stop  offset="1" style="stop-color:#1A85F8"/>
		</linearGradient>
		
			<rect x="1316.806" y="1122.429" style="clip-path:url(#SVGID_00000183958734135650984430000009658017371966458803_);fill:url(#SVGID_00000114033405176887600830000000475039248834367667_);" width="1363.226" height="1110.778"/>
	</g>
	<path style="fill-rule:evenodd;clip-rule:evenodd;fill:#E8F5B7;" d="M2012.91,897.134c111.536,0,201.954,90.413,201.954,201.954
		c0,111.539-90.418,201.957-201.954,201.957c-111.539,0-201.957-90.418-201.957-201.957
		C1810.953,987.547,1901.371,897.134,2012.91,897.134"/>
	<path style="opacity:0.3;fill-rule:evenodd;clip-rule:evenodd;fill:#00463C;" d="M2048.908,1576.839
		c-321.96,58.534-525.15,100.113-658.749,208.321c4.17,34.517,10.417,68.978,16.451,102.901
		c59.977-56.015,145.931-116.957,263.626-159.752c277.688-100.98,673.732-107.362,879.629-419.734
		C2474.807,1410.34,2329.533,1525.816,2048.908,1576.839"/>
	<path style="opacity:0.3;fill-rule:evenodd;clip-rule:evenodd;fill:#FFFFFF;" d="M1390.16,1785.16
		c133.598-108.208,336.788-149.787,658.749-208.321c280.625-51.023,425.899-166.499,500.958-268.264
		c73.494-99.64,79.671-186.145,79.671-186.145c-378.673,454.41-858.327,151.468-1085.528,302.937
		C1387.644,1529.616,1374.765,1657.775,1390.16,1785.16"/>
	<path style="opacity:0.3;fill-rule:evenodd;clip-rule:evenodd;fill:#FFFFFF;" d="M1883.753,1607.791
		c51.278-10.093,106.218-20.237,165.155-30.952c280.625-51.023,425.899-166.499,500.958-268.264
		c73.494-99.64,79.671-186.145,79.671-186.145c-378.673,454.41-858.327,151.468-1085.528,302.937
		c-57.977,38.654-96.22,80.588-120.616,124.565c4.334-7.132,98.674-156.702,383.862-140.828
		c292.137,16.263,332.62,23.646,393.121,16.263c60.507-7.38,56.909,103.958-316.519,182.401L1883.753,1607.791z"/>
	<path style="opacity:0.3;fill-rule:evenodd;clip-rule:evenodd;fill:#FFFFFF;" d="M1518.755,1357.938
		c66.045-37.403,129.803-52.012,176.722-57.311V849.587h-176.722V1357.938z"/>
	<path style="opacity:0.3;fill-rule:evenodd;clip-rule:evenodd;fill:#FFFFFF;" d="M1695.477,1250.335v-200.374h-176.722v257.577
		C1544.837,1174.254,1633.779,986.859,1695.477,1250.335"/>
	<path style="opacity:0.3;fill-rule:evenodd;clip-rule:evenodd;fill:#00463C;" d="M1518.755,2081.738v459.264h176.722v-653.481
		v-80.612c-98.861,30.97-146.549,76.957-176.722,130.96V2081.738z"/>
	<path style="opacity:0.3;fill-rule:evenodd;clip-rule:evenodd;fill:#00463C;" d="M1447.631,1513.024
		c18.433-24.059,41.788-47.364,71.124-69.684V1125.1L1447.631,1513.024z"/>
	<path style="opacity:0.3;fill-rule:evenodd;clip-rule:evenodd;fill:#FFFFFF;" d="M2250.852,1761.522v779.48h162.52v-860.204
		C2361.693,1714.196,2306.472,1740.527,2250.852,1761.522"/>
	<path style="opacity:0.3;fill-rule:evenodd;clip-rule:evenodd;fill:#FFFFFF;" d="M2250.852,1761.522v649.552
		c0.046-19.493,1.593-333.279,50.504-455.564c50.494-126.223,47.322,66.532,112.016,399.319v-674.031
		C2361.693,1714.196,2306.472,1740.527,2250.852,1761.522"/>
	<path style="opacity:0.3;fill-rule:evenodd;clip-rule:evenodd;fill:#00463C;" d="M2201.773,1778.703l49.079,511.296v-528.477
		v-67.646c-18.38,7.478-36.827,14.144-55.288,20.124L2201.773,1778.703z"/>
	<path style="fill-rule:evenodd;clip-rule:evenodd;" d="M3248.052,2714.75v273.453h-66.607v-163.998l-61.158,163.998h-53.755
		l-61.547-164.382v164.382h-66.612V2714.75h78.686l76.737,189.312l75.963-189.312H3248.052z M2729.194,2714.75v163.603
		c0,16.362,4.03,28.952,12.079,37.788c8.05,8.827,19.866,13.241,35.45,13.241c15.578,0,27.527-4.415,35.833-13.241
		c8.307-8.836,12.464-21.426,12.464-37.788V2714.75h66.617v163.21c0,24.416-5.197,45.059-15.584,61.937
		c-10.388,16.881-24.35,29.607-41.878,38.175c-17.529,8.57-37.066,12.856-58.625,12.856c-21.552,0-40.831-4.225-57.844-12.659
		c-17.008-8.438-30.446-21.164-40.312-38.175c-9.873-17.013-14.807-37.718-14.807-62.134v-163.21H2729.194z M2523.138,2990.928
		c-19.993,0-37.914-3.246-53.755-9.74c-15.836-6.489-28.501-16.103-37.98-28.823c-9.478-12.726-14.478-28.048-14.998-45.964h70.894
		c1.041,10.124,4.545,17.854,10.519,23.179c5.974,5.322,13.766,7.979,23.371,7.979c9.868,0,17.664-2.273,23.372-6.813
		c5.716-4.544,8.573-10.842,8.573-18.896c0-6.747-2.278-12.331-6.822-16.745c-4.54-4.418-10.125-8.05-16.745-10.907
		c-6.625-2.858-16.038-6.104-28.245-9.74c-17.658-5.45-32.066-10.903-43.236-16.362c-11.166-5.448-20.774-13.502-28.823-24.147
		c-8.055-10.646-12.079-24.537-12.079-41.681c0-25.446,9.22-45.378,27.663-59.79c18.431-14.417,42.453-21.623,72.061-21.623
		c30.121,0,54.401,7.207,72.843,21.623c18.431,14.412,28.304,34.469,29.607,60.178h-72.071c-0.514-8.828-3.762-15.775-9.735-20.841
		c-5.974-5.06-13.635-7.595-22.982-7.595c-8.05,0-14.544,2.147-19.478,6.43c-4.932,4.286-7.402,10.453-7.402,18.503
		c0,8.826,4.155,15.709,12.468,20.648c8.311,4.934,21.294,10.256,38.954,15.967c17.655,5.975,32.005,11.686,43.045,17.14
		c11.033,5.458,20.578,13.375,28.626,23.764c8.054,10.387,12.079,23.759,12.079,40.121c0,15.578-3.964,29.734-11.886,42.458
		c-7.914,12.726-19.407,22.851-34.471,30.38C2561.44,2987.161,2543.653,2990.928,2523.138,2990.928z M2283.962,2837.062
		c12.726,0,22.205-2.985,28.441-8.959c6.231-5.968,9.347-14.411,9.347-25.315c0-10.912-3.116-19.355-9.347-25.324
		c-6.236-5.974-15.715-8.959-28.441-8.959h-36.226v68.557H2283.962z M2389.53,2802.787c0,15.836-3.636,30.311-10.903,43.43
		c-7.277,13.114-18.443,23.693-33.506,31.742c-15.063,8.054-33.759,12.079-56.092,12.079h-41.293v98.164h-66.606V2714.75h107.899
		c21.815,0,40.251,3.763,55.316,11.297c15.063,7.529,26.358,17.916,33.887,31.157
		C2385.768,2770.45,2389.53,2785.644,2389.53,2802.787z M2132.827,2714.75v273.453h-66.611V2714.75H2132.827z M2018.308,2714.75
		v273.453h-66.606v-163.998l-61.159,163.998h-53.755l-61.552-164.382v164.382h-66.607V2714.75h78.686l76.737,189.312l75.964-189.312
		H2018.308z M1564.502,2768.116v55.311h89.205v51.421h-89.205v59.987h100.891v53.367H1497.89V2714.75h167.502v53.367H1564.502z
		 M1310.528,2837.844h41.291c12.206,0,21.36-2.989,27.461-8.964c6.106-5.969,9.155-14.407,9.155-25.319
		c0-10.387-3.049-18.569-9.155-24.537c-6.101-5.974-15.255-8.964-27.461-8.964h-41.291V2837.844z M1383.371,2988.202
		l-56.871-103.228h-15.972v103.228h-66.613V2714.75h111.798c21.557,0,39.929,3.763,55.119,11.297
		c15.19,7.529,26.555,17.854,34.086,30.965c7.529,13.119,11.296,27.722,11.296,43.821c0,18.18-5.13,34.41-15.387,48.696
		c-10.256,14.281-25.385,24.405-45.382,30.384l63.107,108.289H1383.371z M1067.076,2930.159c21.812,0,39.273-7.271,52.392-21.815
		c13.111-14.544,19.67-33.759,19.67-57.648c0-24.154-6.559-43.435-19.67-57.846c-13.119-14.412-30.58-21.623-52.392-21.623
		c-22.076,0-39.671,7.145-52.785,21.426c-13.114,14.286-19.67,33.632-19.67,58.043c0,24.152,6.555,43.433,19.67,57.845
		C1027.405,2922.952,1045,2930.159,1067.076,2930.159z M1067.076,2990.928c-25.712,0-49.279-5.979-70.701-17.921
		c-21.426-11.944-38.435-28.628-51.033-50.055c-12.59-21.421-18.888-45.512-18.888-72.256c0-26.749,6.297-50.767,18.888-72.066
		c12.598-21.291,29.607-37.914,51.033-49.858c21.421-11.947,44.988-17.921,70.701-17.921c25.709,0,49.273,5.973,70.697,17.921
		c21.427,11.944,38.304,28.567,50.64,49.858c12.337,21.299,18.502,45.317,18.502,72.066c0,26.744-6.231,50.835-18.699,72.256
		c-12.463,21.427-29.344,38.111-50.635,50.055C1116.282,2984.949,1092.785,2990.928,1067.076,2990.928z M2773.316,3047.49h-12.359
		v100.623h16.238v-71.011l57.073,71.011h12.215V3047.49h-16.099v71.588L2773.316,3047.49z M2639.929,3112.316h-42.549l21.273-47.869
		L2639.929,3112.316z M2655.457,3148.113h17.106l-45.139-100.623h-17.537l-45.139,100.623h17.106l9.493-21.131h54.478
		L2655.457,3148.113z M2480.809,3060.281c-10.251-10.159-22.668-15.241-37.23-15.241c-16.488,0-29.423,5.154-38.813,15.456
		c-9.39,10.299-14.089,23.071-14.089,38.307c0,6.903,1.054,13.349,3.163,19.332c2.113,5.993,5.223,11.408,9.342,16.25
		c4.122,4.84,9.656,8.673,16.605,11.502c6.949,2.82,14.881,4.235,23.792,4.235c15.716,0,28.891-5.843,39.531-17.532v-41.26h-42.983
		v14.375h28.033v20.413c-7.089,5.942-15.284,8.912-24.58,8.912c-12.266,0-21.514-3.501-27.742-10.496
		c-6.231-6.995-9.347-15.569-9.347-25.732c-0.093-11.015,3.215-20.268,9.919-27.742c6.709-7.473,15.762-11.211,27.17-11.211
		c4.793,0,9.658,0.937,14.59,2.802c4.934,1.869,9.132,4.531,12.577,7.98L2480.809,3060.281z M2216.325,3098.518
		c0-11.306,3.135-20.508,9.418-27.6c6.274-7.089,15.068-10.636,26.373-10.636c7.764,0.094,14.403,2.081,19.914,5.964
		c5.504,3.884,9.436,8.598,11.788,14.165c2.347,5.555,3.517,11.59,3.517,18.107c0,10.542-2.965,19.337-8.911,26.38
		c-5.941,7.041-14.807,10.56-26.595,10.56c-5.94,0-11.235-1.073-15.883-3.233c-4.648-2.15-8.359-5.028-11.142-8.621
		c-2.779-3.594-4.858-7.519-6.25-11.789C2217.159,3107.552,2216.419,3103.115,2216.325,3098.518z M2252.116,3045.615
		c-15.137,0-27.549,4.962-37.229,14.881c-9.679,9.919-14.519,22.542-14.519,37.877c0,6.802,1.078,13.25,3.236,19.336
		c2.156,6.083,5.271,11.574,9.344,16.459c4.071,4.888,9.464,8.79,16.173,11.719c6.704,2.919,14.276,4.38,22.709,4.38
		c8.435,0,16.007-1.415,22.711-4.24c6.714-2.83,12.102-6.686,16.178-11.574c4.071-4.886,7.187-10.425,9.337-16.6
		c2.16-6.185,3.233-12.721,3.233-19.622c0-14.567-4.451-26.955-13.362-37.16C2281.012,3050.868,2268.407,3045.715,2252.116,3045.615
		z M2050.164,3047.49v100.623h69.141v-14.946h-53.043v-85.677H2050.164z M1953.145,3061.579
		c-7.094-11.311-19.6-16.965-37.521-16.965c-4.793,0-9.39,0.549-13.803,1.653c-4.405,1.097-8.527,2.755-12.36,4.958
		c-3.833,2.207-6.901,5.223-9.197,9.056c-2.301,3.836-3.449,8.241-3.449,13.226c0,4.124,0.74,7.782,2.226,10.997
		c1.484,3.21,3.354,5.825,5.608,7.835c2.25,2.01,5.197,3.734,8.836,5.172c3.645,1.438,7.117,2.539,10.42,3.303
		c3.309,0.769,7.263,1.445,11.864,2.02c8.05,1.05,14.345,2.802,18.904,5.243c4.55,2.441,6.828,6.208,6.828,11.288
		c0,3.926-1.317,7.205-3.955,9.843c-2.633,2.638-5.772,4.438-9.418,5.393c-3.64,0.955-7.664,1.433-12.069,1.433
		c-14.379,0-24.823-5.504-31.341-16.529l-12.073,8.055c8.241,15.236,22.663,22.854,43.265,22.854c7.478,0,14.205-0.983,20.198-2.952
		c5.989-1.964,11.066-5.34,15.236-10.129c4.17-4.793,6.255-10.787,6.255-17.969c0-5.365-1.078-9.993-3.236-13.875
		c-2.15-3.884-5.291-6.947-9.413-9.201c-4.124-2.248-8.289-3.949-12.506-5.103c-4.217-1.147-9.296-2.156-15.236-3.017
		c-7.955-1.149-14.018-2.732-18.188-4.742c-4.165-2.015-6.251-5.225-6.251-9.633c0-4.694,2.161-8.405,6.471-11.142
		c4.311-2.731,9.919-4.099,16.82-4.099c5.268,0.097,10.13,1.129,14.587,3.093c4.459,1.967,7.881,4.676,10.279,8.119
		L1953.145,3061.579z M1749.603,3062.146c6.231,0,10.974,1.846,14.235,5.539c3.256,3.688,4.886,8.025,4.886,13.007
		c0,5.083-1.63,9.347-4.886,12.795c-3.261,3.453-8.05,5.177-14.375,5.177h-30.62v-36.517H1749.603z M1787.844,3145.237
		l-30.046-33.491c9.296-1.345,16.168-4.916,20.63-10.711c4.455-5.802,6.686-12.679,6.686-20.625c0-9.01-3.14-16.75-9.418-23.217
		c-6.278-6.471-14.974-9.704-26.093-9.704c-5.174,0-12.984-0.028-23.431-0.074c-10.445-0.051-18.255-0.074-23.426-0.074v100.772
		h16.097v-34.789h21.273l30.618,34.789h18.835L1787.844,3145.237z M1588.332,3047.63v58.793c0,9.393-2.59,16.651-7.764,21.782
		c-5.172,5.126-11.881,7.449-20.122,6.972c-7.666-0.291-13.851-2.924-18.545-7.909c-4.694-4.985-7.041-11.934-7.041-20.844v-58.793
		H1518.9v58.793c0,13.61,3.954,24.198,11.858,31.77c7.909,7.572,17.8,11.503,29.688,11.784c12.749,0.483,23.235-3.088,31.481-10.706
		c8.241-7.623,12.364-18.567,12.364-32.848v-58.793H1588.332z M1339.657,3098.518c0-11.306,3.139-20.508,9.417-27.6
		c6.279-7.089,15.068-10.636,26.378-10.636c7.759,0.094,14.398,2.081,19.914,5.964c5.504,3.884,9.436,8.598,11.783,14.165
		c2.347,5.555,3.522,11.59,3.522,18.107c0,10.542-2.97,19.337-8.911,26.38c-5.942,7.041-14.807,10.56-26.595,10.56
		c-5.945,0-11.24-1.073-15.888-3.233c-4.643-2.15-8.359-5.028-11.137-8.621c-2.778-3.594-4.863-7.519-6.25-11.789
		C1340.495,3107.552,1339.755,3103.115,1339.657,3098.518z M1375.452,3045.615c-15.142,0-27.549,4.962-37.229,14.881
		c-9.679,9.919-14.519,22.542-14.519,37.877c0,6.802,1.078,13.25,3.233,19.336c2.159,6.083,5.274,11.574,9.347,16.459
		c4.071,4.888,9.464,8.79,16.169,11.719c6.709,2.919,14.281,4.38,22.714,4.38c8.435,0,16.002-1.415,22.711-4.24
		c6.714-2.83,12.097-6.686,16.174-11.574c4.071-4.886,7.187-10.425,9.342-16.6c2.155-6.185,3.233-12.721,3.233-19.622
		c0-14.567-4.455-26.955-13.367-37.16C1404.343,3050.868,1391.743,3045.715,1375.452,3045.615z M1172.637,3047.49h-19.121v0.717
		l38.813,58.651v41.254h16.104v-41.254l39.96-58.651v-0.717h-19.407l-28.608,44.413L1172.637,3047.49z M818.55,2936.779h87.261
		v51.423H751.943V2714.75h66.607V2936.779z"/>
	<rect style="fill:none;" width="4000" height="4000"/>
</g>
</svg>
